<?xml version="1.0" encoding="UTF-8" standalone="no"?>
<!-- Created with Inkscape (http://www.inkscape.org/) -->

<svg
   width="168.24644mm"
   height="161.91489mm"
   viewBox="0 0 168.24645 161.91489"
   version="1.1"
   id="svg1"
   xml:space="preserve"
   inkscape:version="1.3 (0e150ed, 2023-07-21)"
   sodipodi:docname="dibujo.svg"
   xmlns:inkscape="http://www.inkscape.org/namespaces/inkscape"
   xmlns:sodipodi="http://sodipodi.sourceforge.net/DTD/sodipodi-0.dtd"
   xmlns="http://www.w3.org/2000/svg"
   xmlns:svg="http://www.w3.org/2000/svg"><sodipodi:namedview
     id="namedview1"
     pagecolor="#505050"
     bordercolor="#eeeeee"
     borderopacity="1"
     inkscape:showpageshadow="0"
     inkscape:pageopacity="0"
     inkscape:pagecheckerboard="0"
     inkscape:deskcolor="#505050"
     inkscape:document-units="mm"
     inkscape:zoom="0.53862653"
     inkscape:cx="393.59368"
     inkscape:cy="557.90048"
     inkscape:window-width="1680"
     inkscape:window-height="912"
     inkscape:window-x="0"
     inkscape:window-y="25"
     inkscape:window-maximized="0"
     inkscape:current-layer="layer1"><inkscape:page
       x="0"
       y="0"
       width="168.24644"
       height="161.91489"
       id="page1"
       margin="120.67731 83.54583 397.30679 115.10758"
       bleed="0" /></sodipodi:namedview><defs
     id="defs1" /><g
     inkscape:label="Capa 1"
     inkscape:groupmode="layer"
     id="layer1"
     transform="translate(-24.069708,-31.437985)"><g
       id="g110"><circle
         style="fill:#ffffff;fill-opacity:1;stroke-width:0.199735"
         id="path129"
         cx="108.63988"
         cy="113.14152"
         r="69.325432" /><path
         style="fill:#dcc8a2"
         d="m 111.14296,186.34376 -4.90131,0.11737 -1.15325,-0.11691 -1.15325,-0.11692 -2.88312,-0.30895 -2.88312,-0.30895 -3.459747,-0.71843 -3.459747,-0.71844 -4.454226,-1.47469 -4.454226,-1.4747 -4.525848,-2.24396 -4.525847,-2.24396 -3.417353,-2.29584 -3.417353,-2.29583 -2.362721,-1.90348 -2.362721,-1.90349 -3.016813,-3.01681 -3.016814,-3.01682 -2.142929,-2.66974 -2.14293,-2.66974 -1.75436,-2.6107 -1.75436,-2.61069 -1.753586,-3.15335 -1.753585,-3.15335 -1.329562,-3.1499 -1.329562,-3.1499 -0.844485,-2.47439 -0.844486,-2.47439 -0.853667,-3.45975 -0.853668,-3.45974 -0.619326,-4.03637 -0.619327,-4.03638 v -6.48702 -6.48703 l 0.619327,-4.03637 0.619326,-4.03637 0.853668,-3.459747 0.853667,-3.459747 0.844486,-2.474389 0.844485,-2.474388 1.329562,-3.1499 1.329562,-3.149901 1.753585,-3.15335 1.753586,-3.15335 1.745885,-2.610695 1.745886,-2.610696 2.172285,-2.690623 2.172286,-2.690622 2.995932,-2.995933 2.995932,-2.995932 2.362721,-1.903486 2.362721,-1.903485 3.417353,-2.295833 3.417353,-2.295833 4.525847,-2.243963 4.525848,-2.243963 4.454226,-1.474695 4.454226,-1.474696 3.459747,-0.71684 3.459747,-0.716841 2.88312,-0.370487 2.88312,-0.370487 5.91041,0.02021 5.9104,0.02021 4.03637,0.615304 4.03637,0.615303 3.81174,1.008522 3.81173,1.008523 2.9636,1.11845 2.96361,1.11845 2.53673,1.177578 2.53673,1.177578 3.40225,2.013282 3.40224,2.013282 2.85455,2.131505 2.85454,2.131505 2.73897,2.449312 2.73896,2.449312 2.03689,2.283663 2.03688,2.283663 1.60515,2.018186 1.60515,2.018186 2.20254,3.360245 2.20254,3.360246 1.98399,3.991717 1.98399,3.991717 1.02872,2.776236 1.02871,2.776237 0.85844,2.990008 0.85843,2.990009 0.57661,2.883122 0.5766,2.883121 0.37123,2.59481 0.37123,2.59481 v 6.77534 6.77534 l -0.37123,2.59481 -0.37123,2.59481 -0.5766,2.88312 -0.57661,2.88312 -0.85843,2.99001 -0.85844,2.99001 -1.02871,2.77624 -1.02872,2.77623 -1.98399,3.99172 -1.98399,3.99172 -2.20254,3.36024 -2.20254,3.36025 -1.60515,2.01818 -1.60515,2.01819 -2.03688,2.28366 -2.03689,2.28367 -2.73896,2.44931 -2.73897,2.44931 -2.85454,2.1315 -2.85455,2.13151 -3.40224,2.01328 -3.40225,2.01328 -2.53673,1.17758 -2.53673,1.17758 -2.9716,1.12145 -2.9716,1.12145 -3.85893,1.01519 -3.85893,1.01518 -3.83703,0.56546 -3.83702,0.56545 z m -0.0898,-6.34099 4.23486,-0.1302 2.39633,-0.29452 2.39632,-0.29451 3.37598,-0.69206 3.37597,-0.69207 4.10197,-1.36498 4.10198,-1.36498 4.1987,-2.08209 4.19869,-2.0821 3.22205,-2.15561 3.22205,-2.1556 2.25298,-1.83801 2.25298,-1.83801 2.74187,-2.7422 2.74187,-2.74219 1.96743,-2.44743 1.96744,-2.44742 1.83069,-2.73897 1.8307,-2.73897 1.72421,-3.31559 1.7242,-3.31559 1.31003,-3.31559 1.31003,-3.31559 1.01614,-3.89222 1.01614,-3.89221 0.50254,-2.88312 0.50255,-2.88313 v -7.64027 -7.64028 l -0.50255,-2.88312 -0.50254,-2.883121 -1.01614,-3.892216 -1.01614,-3.892215 -1.31003,-3.315591 -1.31003,-3.315591 -1.7242,-3.315591 -1.72421,-3.315591 -1.8307,-2.738966 -1.83069,-2.738967 -1.96744,-2.445445 -1.96743,-2.445446 -2.73897,-2.749238 -2.73896,-2.749238 -2.25589,-1.832947 -2.25588,-1.832948 -3.22205,-2.155607 -3.22205,-2.155606 -4.19869,-2.082095 -4.1987,-2.082094 -4.10198,-1.364982 -4.10197,-1.364982 -3.37597,-0.692549 -3.37598,-0.692549 -2.45065,-0.284902 -2.45066,-0.284903 -3.17143,-0.186454 -3.17144,-0.186453 -4.03637,0.323391 -4.03637,0.323391 -2.59481,0.442074 -2.594811,0.442075 -2.761507,0.695874 -2.761508,0.695875 -3.004737,1.035576 -3.004737,1.035577 -4.036372,1.964862 -4.036371,1.964862 -3.459747,2.28935 -3.459747,2.28935 -2.59481,2.171749 -2.594811,2.171748 -2.89591,2.997312 -2.89591,2.997313 -2.077738,2.69554 -2.077738,2.695539 -1.635784,2.638237 -1.635783,2.638237 -1.947262,4.036372 -1.947263,4.036371 -1.14719,3.459748 -1.147191,3.459747 -0.733278,3.315591 -0.733278,3.315586 -0.371691,2.59481 -0.371692,2.59482 v 6.19871 6.19871 l 0.371692,2.59481 0.371691,2.59481 0.733278,3.31559 0.733278,3.31559 1.147191,3.45975 1.14719,3.45975 1.947263,4.03637 1.947262,4.03637 1.635783,2.63824 1.635784,2.63824 2.077738,2.69554 2.077738,2.69554 2.89591,2.99731 2.89591,2.99731 2.594811,2.17175 2.59481,2.17175 3.459747,2.28935 3.459747,2.28935 4.036371,1.96486 4.036372,1.96486 3.004737,1.03558 3.004737,1.03557 2.761508,0.69735 2.761507,0.69734 2.738967,0.46175 2.738964,0.46175 2.88312,0.25512 2.88313,0.25512 z"
         id="path122"
         sodipodi:nodetypes="cccccccccccccccccccccccccccccccccccccccccccccccccccccccccccccccccccccccccccccccccccccccccccccccccccccccccccccccccccccccccccccccccccccccccccccccccccccccccccccccccccccccccccccccccccccccccccccccccccccccccccccccccccccccccccccccccccccccccccccccccccc" /><path
         style="fill:#bb945b"
         d="m 109.08938,139.96226 h -6.19871 V 115.59988 91.237492 h 6.19871 6.19872 v 24.362388 24.36238 z m 16.4338,-0.86494 h -6.19871 v -3.74805 -3.74806 h 6.19871 6.19871 v 3.74806 3.74805 z m 16.4338,0 h -6.19872 V 119.7804 100.46348 h 6.00753 6.00752 l 0.19119,13.45388 0.19119,13.45387 v 5.86305 5.86304 z"
         id="path115"
         sodipodi:nodetypes="ccccccccccccccccccccccccccccc" /><path
         style="fill:#9e2140"
         d="M 59.211363,139.96226 H 53.01265 V 112.69113 85.420012 l 14.055222,0.12871 14.055222,0.12871 2.59481,0.58309 2.59481,0.58309 1.857691,0.75783 1.857692,0.75783 1.81904,1.18515 1.81904,1.18515 1.536562,1.65967 1.536562,1.65967 0.757659,1.29285 0.75766,1.29285 0.789841,2.27483 0.789839,2.274818 v 4.03637 4.03638 l -0.79678,2.2955 -0.796783,2.2955 -1.296329,1.94996 -1.296329,1.94996 -1.458107,1.27552 -1.458108,1.27551 -1.840091,1.07613 -1.840092,1.07613 v 0.20429 0.2043 l 5.904337,8.47915 5.904332,8.47915 -6.402354,0.0778 -6.40236,0.0778 -0.316655,-0.12151 -0.316656,-0.12151 -5.167801,-7.52146 -5.167802,-7.52147 -5.838323,-0.003 -5.838323,-0.003 v 7.64028 7.64027 z m 12.037036,-25.08534 5.838323,-0.002 1.87403,-0.30127 1.87403,-0.30126 1.441561,-0.65957 1.441561,-0.65956 0.878213,-0.74302 0.878214,-0.74301 0.85166,-1.53749 0.85166,-1.53749 v -3.04618 -3.04619 l -0.867931,-1.69876 -0.867931,-1.698588 -1.234475,-0.94156 -1.234474,-0.94157 -1.933966,-0.61737 -1.933966,-0.61738 -6.847416,-0.14956 -6.847416,-0.14955 v 9.696778 9.69678 z"
         id="path111"
         sodipodi:nodetypes="cccccccccccccccccccccccccccccccccccccccccccccccccccccccccccccccccc" /><path
         style="fill:#225a4d"
         d="m 158.10246,139.09732 h -6.19871 V 111.99597 84.894622 h 6.19871 6.19872 v 27.101348 27.10135 z"
         id="path110"
         sodipodi:nodetypes="ccccccccc" /></g></g></svg>
